<?xml version="1.0" encoding="utf-8"?>
<!-- Generator: Adobe Illustrator 16.0.0, SVG Export Plug-In . SVG Version: 6.00 Build 0)  -->
<!DOCTYPE svg PUBLIC "-//W3C//DTD SVG 1.1//EN" "http://www.w3.org/Graphics/SVG/1.1/DTD/svg11.dtd" [
	<!ENTITY st0 "fill:#231F20;">
]>
<svg version="1.1" id="Layer_1" xmlns="http://www.w3.org/2000/svg" xmlns:xlink="http://www.w3.org/1999/xlink" x="0px" y="0px"
	 width="85.04px" height="85.04px" viewBox="0 0 85.04 85.04" style="enable-background:new 0 0 85.04 85.04;" xml:space="preserve"
	>
<path style="&st0;" d="M42.167,49.834c4.412,0,8-3.59,8-8c0-4.411-3.588-8-8-8c-4.411,0-8,3.589-8,8
	C34.167,46.244,37.755,49.834,42.167,49.834z M42.167,34.833c3.86,0,7,3.14,7,7s-3.14,7-7,7s-7-3.141-7-7
	S38.307,34.833,42.167,34.833z"/>
<path style="&st0;" d="M41.5,31.5c0.276,0,0.5-0.224,0.5-0.5v-4c0-0.276-0.224-0.5-0.5-0.5S41,26.724,41,27v4
	C41,31.276,41.224,31.5,41.5,31.5z"/>
<path style="&st0;" d="M42,57v-4c0-0.276-0.224-0.5-0.5-0.5S41,52.724,41,53v4c0,0.276,0.224,0.5,0.5,0.5S42,57.276,42,57z"/>
<path style="&st0;" d="M31.5,42.5c0-0.276-0.224-0.5-0.5-0.5h-4c-0.276,0-0.5,0.224-0.5,0.5S26.724,43,27,43h4
	C31.276,43,31.5,42.776,31.5,42.5z"/>
<path style="&st0;" d="M57,42h-4c-0.276,0-0.5,0.224-0.5,0.5S52.724,43,53,43h4c0.276,0,0.5-0.224,0.5-0.5S57.276,42,57,42z"/>
<path style="&st0;" d="M32.08,52.793l2.829-2.828c0.195-0.195,0.195-0.512,0-0.707s-0.512-0.195-0.707,0l-2.829,2.828
	c-0.195,0.195-0.195,0.512,0,0.707c0.098,0.098,0.226,0.146,0.354,0.146S31.982,52.891,32.08,52.793z"/>
<path style="&st0;" d="M50.111,34.555c0.128,0,0.256-0.049,0.354-0.146l2.828-2.829c0.195-0.195,0.195-0.512,0-0.707
	s-0.512-0.195-0.707,0l-2.828,2.829c-0.195,0.195-0.195,0.512,0,0.707C49.855,34.506,49.983,34.555,50.111,34.555z"/>
<path style="&st0;" d="M50.465,49.258c-0.195-0.195-0.512-0.195-0.707,0s-0.195,0.512,0,0.707l2.828,2.828
	c0.098,0.098,0.227,0.146,0.354,0.146c0.129,0,0.256-0.049,0.354-0.146c0.195-0.195,0.195-0.512,0-0.707L50.465,49.258z"/>
<path style="&st0;" d="M34.202,34.409c0.098,0.098,0.226,0.146,0.354,0.146s0.256-0.049,0.354-0.146
	c0.195-0.195,0.195-0.512,0-0.707l-2.829-2.829c-0.195-0.195-0.512-0.195-0.707,0s-0.195,0.512,0,0.707L34.202,34.409z"/>
</svg>
