<?xml version="1.0" encoding="utf-8"?>
<!-- Generator: Adobe Illustrator 16.0.0, SVG Export Plug-In . SVG Version: 6.00 Build 0)  -->
<!DOCTYPE svg PUBLIC "-//W3C//DTD SVG 1.1//EN" "http://www.w3.org/Graphics/SVG/1.1/DTD/svg11.dtd">
<svg version="1.1" id="Layer_1" xmlns="http://www.w3.org/2000/svg" xmlns:xlink="http://www.w3.org/1999/xlink" x="0px" y="0px"
	 width="85.04px" height="85.04px" viewBox="0 0 85.04 85.04" enable-background="new 0 0 85.04 85.04" xml:space="preserve">
<path fill="#231F20" d="M45.5,33.5c0.276,0,0.5-0.224,0.5-0.5v-2c0-0.276-0.224-0.5-0.5-0.5S45,30.724,45,31v2
	C45,33.276,45.224,33.5,45.5,33.5z"/>
<path fill="#231F20" d="M56,41h-2c-0.276,0-0.5,0.224-0.5,0.5S53.724,42,54,42h2c0.276,0,0.5-0.224,0.5-0.5S56.276,41,56,41z"/>
<path fill="#231F20" d="M45.25,54c2.981,0,5.5-2.586,5.5-5.646c0-1.289-0.466-2.48-1.207-3.443c1.248-1.105,1.965-2.672,1.965-4.348
	c0-3.206-2.607-5.814-5.813-5.814c-2.484,0-4.711,1.624-5.5,3.965c-2.554,0.026-4.719,1.807-5.279,4.26
	c-0.543-0.176-1.101-0.265-1.665-0.265c-2.981,0-5.5,2.585-5.5,5.645c0,3.061,2.519,5.646,5.5,5.646H45.25z M45.694,35.749
	c2.654,0,4.813,2.16,4.813,4.814c0,1.393-0.598,2.696-1.641,3.611c-0.906-0.832-2.059-1.385-3.324-1.457
	c-0.57-2.029-2.268-3.542-4.313-3.915C41.948,36.99,43.72,35.749,45.694,35.749z M28.75,48.354c0-2.518,2.061-4.645,4.5-4.645
	c0.63,0,1.252,0.137,1.849,0.408c0.146,0.065,0.314,0.058,0.454-0.021c0.139-0.08,0.232-0.221,0.25-0.38
	c0.252-2.284,2.165-4.007,4.448-4.007c2.135,0,3.99,1.518,4.41,3.608c0.047,0.234,0.252,0.401,0.49,0.401
	c0.035,0,0.081-0.005,0.1-0.01c2.439,0,4.5,2.127,4.5,4.645c0,2.52-2.061,4.646-4.5,4.646h-12C30.811,53,28.75,50.873,28.75,48.354z
	"/>
<path fill="#231F20" d="M39.386,35.768c0.098,0.098,0.226,0.146,0.354,0.146s0.256-0.049,0.354-0.146
	c0.195-0.195,0.195-0.512,0-0.707l-1.415-1.414c-0.195-0.195-0.512-0.195-0.707,0s-0.195,0.512,0,0.707L39.386,35.768z"/>
<path fill="#231F20" d="M51.76,35.914c0.129,0,0.256-0.049,0.354-0.146l1.415-1.414c0.195-0.195,0.195-0.512,0-0.707
	s-0.512-0.195-0.707,0l-1.415,1.414c-0.195,0.195-0.195,0.512,0,0.707C51.504,35.865,51.633,35.914,51.76,35.914z"/>
<path fill="#231F20" d="M51.982,46.363l1.414,1.415c0.098,0.098,0.226,0.146,0.354,0.146s0.256-0.049,0.354-0.146
	c0.195-0.195,0.195-0.512,0-0.707l-1.414-1.415c-0.195-0.195-0.512-0.195-0.707,0S51.787,46.168,51.982,46.363z"/>
</svg>
