<?xml version="1.0" encoding="utf-8"?>
<!-- Generator: Adobe Illustrator 16.0.0, SVG Export Plug-In . SVG Version: 6.00 Build 0)  -->
<!DOCTYPE svg PUBLIC "-//W3C//DTD SVG 1.1//EN" "http://www.w3.org/Graphics/SVG/1.1/DTD/svg11.dtd" [
	<!ENTITY st0 "fill:#231F20;">
]>
<svg version="1.1" id="Layer_1" xmlns="http://www.w3.org/2000/svg" xmlns:xlink="http://www.w3.org/1999/xlink" x="0px" y="0px"
	 width="85.04px" height="85.04px" viewBox="0 0 85.04 85.04" style="enable-background:new 0 0 85.04 85.04;" xml:space="preserve"
	>
<path style="&st0;" d="M34.833,51h12c2.93,0,5.5-2.804,5.5-6c0-3.089-2.4-5.812-5.206-5.991C46.468,36.663,44.305,35,41.833,35
	c-2.579,0-4.771,1.793-5.335,4.265C35.956,39.089,35.397,39,34.833,39c-2.93,0-5.5,2.804-5.5,6S31.904,51,34.833,51z M34.833,40
	c0.63,0,1.252,0.137,1.849,0.408c0.146,0.066,0.314,0.059,0.454-0.021c0.139-0.079,0.232-0.22,0.25-0.379
	C37.638,37.723,39.55,36,41.833,36c2.135,0,3.99,1.518,4.41,3.608c0.048,0.239,0.254,0.39,0.505,0.402
	c0.036-0.001,0.071-0.005,0.085-0.01c2.575,0,4.5,2.64,4.5,5s-1.925,5-4.5,5h-12c-2.576,0-4.5-2.64-4.5-5S32.258,40,34.833,40z"/>
</svg>
