<?xml version="1.0" encoding="utf-8"?>
<!-- Generator: Adobe Illustrator 16.0.0, SVG Export Plug-In . SVG Version: 6.00 Build 0)  -->
<!DOCTYPE svg PUBLIC "-//W3C//DTD SVG 1.1//EN" "http://www.w3.org/Graphics/SVG/1.1/DTD/svg11.dtd" [
	<!ENTITY st0 "fill:#231F20;">
]>
<svg version="1.1" id="Layer_1" xmlns="http://www.w3.org/2000/svg" xmlns:xlink="http://www.w3.org/1999/xlink" x="0px" y="0px"
	 width="85.04px" height="85.04px" viewBox="0 0 85.04 85.04" style="enable-background:new 0 0 85.04 85.04;" xml:space="preserve"
	>
<path style="&st0;" d="M33.5,53h12c2.981,0,5.5-2.576,5.5-5.625c0-0.447-0.07-0.877-0.172-1.297C52.666,45.592,54,43.932,54,42
	c0-2.212-1.698-4.035-3.932-4.226C49.535,36,47.883,34.75,46,34.75c-1.958,0-3.615,1.345-4.087,3.204
	c-0.455-0.122-0.925-0.204-1.413-0.204c-2.579,0-4.771,1.794-5.335,4.265c-0.543-0.176-1.101-0.265-1.665-0.265
	c-2.981,0-5.5,2.576-5.5,5.625S30.519,53,33.5,53z M46,35.75c1.542,0,2.881,1.096,3.185,2.606c0.048,0.236,0.306,0.393,0.565,0.394
	c1.792,0,3.25,1.458,3.25,3.25c0,1.497-1.052,2.781-2.489,3.129c-0.829-1.878-2.636-3.252-4.718-3.371
	c-0.436-1.548-1.532-2.787-2.935-3.458C43.184,36.827,44.47,35.75,46,35.75z M33.5,42.75c0.63,0,1.252,0.137,1.85,0.408
	c0.146,0.066,0.313,0.058,0.454-0.021c0.139-0.08,0.231-0.221,0.249-0.38c0.252-2.284,2.163-4.007,4.447-4.007
	c2.135,0,3.989,1.518,4.41,3.609c0.048,0.239,0.253,0.402,0.505,0.401c0.036-0.001,0.071-0.005,0.085-0.01
	c2.439,0,4.5,2.118,4.5,4.625S47.939,52,45.5,52h-12c-2.439,0-4.5-2.118-4.5-4.625S31.061,42.75,33.5,42.75z"/>
</svg>
