<?xml version="1.0" encoding="utf-8"?>
<!-- Generator: Adobe Illustrator 16.0.0, SVG Export Plug-In . SVG Version: 6.00 Build 0)  -->
<!DOCTYPE svg PUBLIC "-//W3C//DTD SVG 1.1//EN" "http://www.w3.org/Graphics/SVG/1.1/DTD/svg11.dtd" [
	<!ENTITY st0 "fill:#231F20;">
]>
<svg version="1.1" id="Layer_1" xmlns="http://www.w3.org/2000/svg" xmlns:xlink="http://www.w3.org/1999/xlink" x="0px" y="0px"
	 width="85.04px" height="85.04px" viewBox="0 0 85.04 85.04" style="enable-background:new 0 0 85.04 85.04;" xml:space="preserve"
	>
<path style="&st0;" d="M35,48h12c3.147,0,5.5-3.234,5.5-6.125c0-2.801-2.207-5.922-5.206-6.116c-0.66-2.346-2.823-4.009-5.294-4.009
	c-2.579,0-4.771,1.794-5.335,4.265C36.122,35.839,35.564,35.75,35,35.75c-3.147,0-5.5,3.234-5.5,6.125C29.5,44.766,31.853,48,35,48z
	 M35,36.75c0.63,0,1.252,0.137,1.85,0.408c0.146,0.067,0.313,0.058,0.454-0.021c0.139-0.08,0.231-0.221,0.249-0.38
	c0.252-2.284,2.163-4.007,4.447-4.007c2.135,0,3.989,1.518,4.41,3.609c0.048,0.238,0.271,0.399,0.505,0.401
	c0.036-0.001,0.071-0.005,0.085-0.01c2.534,0,4.5,2.755,4.5,5.125S49.534,47,47,47H35c-2.534,0-4.5-2.755-4.5-5.125
	S32.466,36.75,35,36.75z"/>
<path style="&st0;" d="M36,50v4c0,0.276,0.224,0.5,0.5,0.5S37,54.276,37,54v-4c0-0.276-0.224-0.5-0.5-0.5S36,49.724,36,50z"/>
<path style="&st0;" d="M42,50v4c0,0.276,0.224,0.5,0.5,0.5S43,54.276,43,54v-4c0-0.276-0.224-0.5-0.5-0.5S42,49.724,42,50z"/>
<path style="&st0;" d="M39,50v2c0,0.276,0.224,0.5,0.5,0.5S40,52.276,40,52v-2c0-0.276-0.224-0.5-0.5-0.5S39,49.724,39,50z"/>
<path style="&st0;" d="M45,50v2c0,0.276,0.224,0.5,0.5,0.5S46,52.276,46,52v-2c0-0.276-0.224-0.5-0.5-0.5S45,49.724,45,50z"/>
</svg>
