<?xml version="1.0" encoding="utf-8"?>
<!-- Generator: Adobe Illustrator 16.0.0, SVG Export Plug-In . SVG Version: 6.00 Build 0)  -->
<!DOCTYPE svg PUBLIC "-//W3C//DTD SVG 1.1//EN" "http://www.w3.org/Graphics/SVG/1.1/DTD/svg11.dtd" [
	<!ENTITY st0 "fill:#231F20;">
]>
<svg version="1.1" id="Layer_1" xmlns="http://www.w3.org/2000/svg" xmlns:xlink="http://www.w3.org/1999/xlink" x="0px" y="0px"
	 width="85.04px" height="85.04px" viewBox="0 0 85.04 85.04" style="enable-background:new 0 0 85.04 85.04;" xml:space="preserve"
	>
<path style="&st0;" d="M53.125,41.25c0-3.014-2.355-5.576-5.207-5.742c-0.66-2.346-2.822-4.008-5.293-4.008
	c-2.579,0-4.771,1.793-5.335,4.265c-0.543-0.176-1.101-0.265-1.665-0.265c-2.981,0-5.5,2.633-5.5,5.75c0,3.117,2.519,5.75,5.5,5.75
	h12C50.606,47,53.125,44.367,53.125,41.25z M31.125,41.25c0-2.575,2.061-4.75,4.5-4.75c0.63,0,1.252,0.137,1.849,0.408
	c0.146,0.065,0.315,0.058,0.454-0.021s0.232-0.22,0.25-0.379c0.252-2.285,2.165-4.007,4.448-4.007c2.135,0,3.99,1.518,4.41,3.609
	c0.047,0.238,0.219,0.396,0.504,0.401c0.037-0.001,0.072-0.005,0.086-0.01c2.439,0,4.5,2.175,4.5,4.75S50.064,46,47.625,46h-12
	C33.186,46,31.125,43.825,31.125,41.25z"/>
<path style="&st0;" d="M34.729,48.646c-0.195-0.195-0.512-0.195-0.707,0l-2.497,2.497c-0.195,0.195-0.195,0.512,0,0.707
	c0.098,0.098,0.226,0.146,0.354,0.146s0.256-0.049,0.354-0.146l2.497-2.497C34.924,49.158,34.924,48.842,34.729,48.646z"/>
<path style="&st0;" d="M38.729,48.646c-0.195-0.195-0.512-0.195-0.707,0l-2.497,2.497c-0.195,0.195-0.195,0.512,0,0.707
	c0.098,0.098,0.226,0.146,0.354,0.146s0.256-0.049,0.354-0.146l2.497-2.497C38.924,49.158,38.924,48.842,38.729,48.646z"/>
<path style="&st0;" d="M42.729,48.646c-0.195-0.195-0.512-0.195-0.707,0l-2.497,2.497c-0.195,0.195-0.195,0.512,0,0.707
	c0.098,0.098,0.226,0.146,0.354,0.146s0.256-0.049,0.354-0.146l2.497-2.497C42.924,49.158,42.924,48.842,42.729,48.646z"/>
<path style="&st0;" d="M46.021,48.646l-2.497,2.497c-0.195,0.195-0.195,0.512,0,0.707c0.098,0.098,0.226,0.146,0.354,0.146
	s0.256-0.049,0.354-0.146l2.497-2.497c0.195-0.195,0.195-0.512,0-0.707S46.217,48.451,46.021,48.646z"/>
<path style="&st0;" d="M42.021,52.646l-1,1c-0.195,0.195-0.195,0.512,0,0.707c0.098,0.098,0.226,0.146,0.354,0.146
	s0.256-0.049,0.354-0.146l1-1c0.195-0.195,0.195-0.512,0-0.707S42.217,52.451,42.021,52.646z"/>
<path style="&st0;" d="M38.021,52.646l-1,1c-0.195,0.195-0.195,0.512,0,0.707c0.098,0.098,0.226,0.146,0.354,0.146
	s0.256-0.049,0.354-0.146l1-1c0.195-0.195,0.195-0.512,0-0.707S38.217,52.451,38.021,52.646z"/>
<path style="&st0;" d="M34.021,52.646l-1,1c-0.195,0.195-0.195,0.512,0,0.707c0.098,0.098,0.226,0.146,0.354,0.146
	s0.256-0.049,0.354-0.146l1-1c0.195-0.195,0.195-0.512,0-0.707S34.217,52.451,34.021,52.646z"/>
<path style="&st0;" d="M30.021,52.646l-1,1c-0.195,0.195-0.195,0.512,0,0.707c0.098,0.098,0.226,0.146,0.354,0.146
	s0.256-0.049,0.354-0.146l1-1c0.195-0.195,0.195-0.512,0-0.707S30.217,52.451,30.021,52.646z"/>
</svg>
