<?xml version="1.0" encoding="utf-8"?>
<!-- Generator: Adobe Illustrator 16.0.0, SVG Export Plug-In . SVG Version: 6.00 Build 0)  -->
<!DOCTYPE svg PUBLIC "-//W3C//DTD SVG 1.1//EN" "http://www.w3.org/Graphics/SVG/1.1/DTD/svg11.dtd" [
	<!ENTITY st0 "fill:#231F20;">
]>
<svg version="1.1" id="Layer_1" xmlns="http://www.w3.org/2000/svg" xmlns:xlink="http://www.w3.org/1999/xlink" x="0px" y="0px"
	 width="85.04px" height="85.04px" viewBox="0 0 85.04 85.04" style="enable-background:new 0 0 85.04 85.04;" xml:space="preserve"
	>
<path style="&st0;" d="M47.294,34.926c-0.659-2.346-2.823-4.009-5.294-4.009c-2.579,0-4.771,1.793-5.335,4.265
	c-0.543-0.176-1.101-0.265-1.665-0.265c-2.93,0-5.5,2.823-5.5,6.042C29.5,44.177,32.07,47,35,47h12c2.93,0,5.5-2.823,5.5-6.042
	C52.5,37.848,50.1,35.106,47.294,34.926z M47,46H35c-2.576,0-4.5-2.662-4.5-5.042s1.924-5.042,4.5-5.042
	c0.63,0,1.252,0.137,1.849,0.408c0.146,0.066,0.314,0.058,0.454-0.021c0.139-0.079,0.232-0.221,0.25-0.379
	c0.252-2.285,2.165-4.007,4.448-4.007c2.135,0,3.99,1.518,4.41,3.609c0.047,0.234,0.252,0.401,0.49,0.401
	c0.045,0,0.084-0.004,0.1-0.01c2.576,0,4.5,2.662,4.5,5.042S49.576,46,47,46z"/>
<path style="&st0;" d="M37.479,54.998c0.098,0.099,0.226,0.148,0.354,0.148c0.127,0,0.255-0.049,0.353-0.146l3.167-3.146
	c0.144-0.143,0.187-0.358,0.11-0.545C41.385,51.122,41.203,51,41,51h-1.282l2.097-2.127c0.194-0.197,0.192-0.514-0.005-0.707
	s-0.513-0.191-0.707,0.005l-2.937,2.978c-0.142,0.145-0.183,0.358-0.105,0.545C38.14,51.879,38.321,52,38.523,52h1.264l-2.306,2.291
	C37.285,54.486,37.284,54.803,37.479,54.998z"/>
</svg>
