<?xml version="1.0" encoding="utf-8"?>
<!-- Generator: Adobe Illustrator 16.0.0, SVG Export Plug-In . SVG Version: 6.00 Build 0)  -->
<!DOCTYPE svg PUBLIC "-//W3C//DTD SVG 1.1//EN" "http://www.w3.org/Graphics/SVG/1.1/DTD/svg11.dtd" [
	<!ENTITY st0 "fill:#231F20;">
]>
<svg version="1.1" id="Layer_1" xmlns="http://www.w3.org/2000/svg" xmlns:xlink="http://www.w3.org/1999/xlink" x="0px" y="0px"
	 width="85.04px" height="85.04px" viewBox="0 0 85.04 85.04" style="enable-background:new 0 0 85.04 85.04;" xml:space="preserve"
	>
<path style="&st0;" d="M34.833,48h12c2.93,0,5.5-2.804,5.5-6c0-3.089-2.4-5.812-5.206-5.991C46.468,33.663,44.305,32,41.833,32
	c-2.579,0-4.771,1.793-5.335,4.265C35.956,36.089,35.397,36,34.833,36c-2.93,0-5.5,2.804-5.5,6S31.904,48,34.833,48z M34.833,37
	c0.63,0,1.252,0.137,1.849,0.408c0.146,0.066,0.314,0.059,0.454-0.021c0.139-0.079,0.232-0.22,0.25-0.379
	C37.638,34.723,39.55,33,41.833,33c2.135,0,3.99,1.518,4.41,3.608c0.048,0.239,0.254,0.39,0.505,0.402
	c0.036-0.001,0.071-0.005,0.085-0.01c2.575,0,4.5,2.64,4.5,5s-1.925,5-4.5,5h-12c-2.576,0-4.5-2.64-4.5-5S32.258,37,34.833,37z"/>
<circle style="&st0;" cx="37.833" cy="52" r="0.5"/>
<circle style="&st0;" cx="42.833" cy="52" r="0.5"/>
<circle style="&st0;" cx="40.833" cy="50" r="0.5"/>
<circle style="&st0;" cx="45.833" cy="50" r="0.5"/>
<circle style="&st0;" cx="39.833" cy="54" r="0.5"/>
<circle style="&st0;" cx="35.833" cy="50" r="0.5"/>
</svg>
