<?xml version="1.0" encoding="utf-8"?>
<!-- Generator: Adobe Illustrator 16.0.0, SVG Export Plug-In . SVG Version: 6.00 Build 0)  -->
<!DOCTYPE svg PUBLIC "-//W3C//DTD SVG 1.1//EN" "http://www.w3.org/Graphics/SVG/1.1/DTD/svg11.dtd" [
	<!ENTITY st0 "fill:#231F20;">
]>
<svg version="1.1" id="Layer_1" xmlns="http://www.w3.org/2000/svg" xmlns:xlink="http://www.w3.org/1999/xlink" x="0px" y="0px"
	 width="85.04px" height="85.04px" viewBox="0 0 85.04 85.04" style="enable-background:new 0 0 85.04 85.04;" xml:space="preserve"
	>
<path style="&st0;" d="M48,45H34c-0.276,0-0.5,0.224-0.5,0.5S33.724,46,34,46h14c0.276,0,0.5-0.224,0.5-0.5S48.276,45,48,45z"/>
<path style="&st0;" d="M48,43H34c-0.276,0-0.5,0.224-0.5,0.5S33.724,44,34,44h14c0.276,0,0.5-0.224,0.5-0.5S48.276,43,48,43z"/>
<path style="&st0;" d="M48,41H34c-0.276,0-0.5,0.224-0.5,0.5S33.724,42,34,42h14c0.276,0,0.5-0.224,0.5-0.5S48.276,41,48,41z"/>
</svg>
